<svg version="1.2" xmlns="http://www.w3.org/2000/svg" viewBox="0 0 3671 4005" width="3671" height="4005">
	<title>Forever Canadian White Background</title>
	<defs>
		<clipPath clipPathUnits="userSpaceOnUse" id="cp1">
			<path d="m-94-100h3840v4770h-3840z"/>
		</clipPath>
	</defs>
	<style>
		.s0 { fill: #fe0202 } 
	</style>
	<g id="Page 1" clip-path="url(#cp1)">
		<path id="Path 17" fill-rule="evenodd" class="s0" d="m1446 2972h124l3.3 9.5c1.9 5.2 6 16.2 9.2 24.5 3.2 8.2 11.7 30.7 18.9 50 7.1 19.2 18.7 50.3 25.6 69 6.9 18.7 28.1 75.4 47 126 19 50.6 41.4 110.9 50 134 8.6 23.1 27 72.6 41 110 13.9 37.4 28 75.2 31.3 84 3.3 8.8 9 24.1 12.6 34 3.7 9.9 9.6 25.7 13 35 3.5 9.3 8.5 23.1 11.2 30.5 2.7 7.4 5.6 13.5 6.4 13.5 0.8 0 3-4.2 4.8-9.5 1.8-5.2 6.9-18.9 11.2-30.5 4.3-11.6 15.6-41.7 25-67 9.4-25.3 27.2-73 39.5-106 12.3-33 32.3-86.6 44.4-119 12.1-32.4 29-77.9 37.6-101 8.6-23.1 23-61.8 32-86 9-24.2 27.3-73.1 65-173.1h61.5c33.8 0.1 61.5 0.5 61.5 1.1 0 0.6-5.9 16.5-13.2 35.5-7.2 19-24.3 64.2-38.1 100.5-13.7 36.3-26.2 69.2-27.7 73-1.6 3.8-12.9 33.6-25.2 66-12.3 32.4-31.6 83.3-42.8 113-11.2 29.7-30.5 80.6-42.8 113-12.4 32.4-28.8 75.7-36.5 96-7.7 20.3-16.6 43.7-19.8 52-3.1 8.2-12.6 33-21 55-8.4 22-24.3 63.8-35.3 93-11 29.2-27.5 72.8-36.6 97-9.2 24.2-22.2 58.4-29 76-6.7 17.6-12.9 32.7-13.6 33.5-0.8 0.9-3.9-4.5-6.9-12-2.9-7.4-8.5-21.6-12.2-31.5-3.8-9.9-19.2-50.4-34.2-90-15.1-39.6-36.4-95.8-47.5-125-11-29.2-24.8-65.6-30.7-81-5.8-15.4-17.9-47.3-26.9-71-9-23.7-26.2-69.1-38.3-101-12.2-31.9-28-73.3-35.1-92-7.2-18.7-14.7-38.5-16.7-44-1.9-5.5-10.3-27.6-18.5-49-8.1-21.4-26.1-68.7-39.9-105-13.8-36.3-33.3-87.6-43.4-114-10.1-26.4-22.8-60.2-28.3-75-5.5-14.8-11.3-30.4-12.9-34.5zm661.4-633c3.1 5.5 8.2 15.8 11.3 23 3.1 7.2 8.4 20.7 11.7 30 3.3 9.3 7.8 23.3 9.8 31 2.1 7.7 5.7 22.1 7.9 32 2.3 9.9 5.9 29.7 8 44 2.1 14.3 4.9 39.9 6.1 57 1.4 18 1.8 47.7 1.1 71-0.6 22-2.5 51.7-4.2 66-1.7 14.3-4.9 36.3-7 49-2.2 12.7-7.1 35.2-10.9 50-3.9 14.8-10.5 37.3-14.8 50-4.4 12.7-10.5 29.2-13.6 36.8-3.2 7.6-6.7 14.2-7.8 14.7-1.1 0.4-10.1-0.5-20-2.2-9.9-1.7-37.3-6.8-61-11.4-37.9-7.4-47.6-8.5-120.5-10.9l14.9-19c8.1-10.4 22-28.9 30.8-41 8.8-12.1 20-28.3 25.1-36 5-7.7 14.7-23.4 21.7-35 6.9-11.6 21-38.1 31.4-59 10.3-20.9 23.1-49.3 28.4-63 5.4-13.8 13.4-36.3 17.9-50 4.5-13.8 10.4-34 13.1-45 2.8-11 6.3-26.8 8-35 1.6-8.3 3.8-20.8 4.9-28 1.2-7.2 3.2-23.8 4.5-37 1.4-14.7 1.9-34.9 1.1-52-0.7-15.4-1.8-30.7-2.5-34-0.9-5-0.1-4.3 4.6 4z"/>
		<path id="Path 18" class="s0" d="m1524.9 2169.5c-0.8 7.4-0.9 21.2-0.1 30.5 0.7 9.3 3.1 24.7 5.3 34 2.3 9.3 8.2 27.3 13.2 40 4.9 12.7 15.2 35.2 22.8 50 7.5 14.8 18.8 36 24.9 47 6.1 11 18.2 33.9 26.8 51 8.6 17.1 19.7 41.3 24.7 54 5.1 12.7 11.5 30.2 14.3 39 2.8 8.8 6.5 21.4 8.1 28 1.7 6.6 4.6 22.3 6.4 35 2.5 17.8 3 31.6 2.1 61-0.8 27.8-2.2 43.1-5.3 57-2.3 10.4-6.5 26.7-9.2 36-2.8 9.3-8.7 26-13 37-4.4 11-12.9 29.9-19.1 42-6.1 12.1-16.9 31.4-24.1 43-7.1 11.6-15.1 24.4-17.8 28.5l-4.9 7.5c7 0 25.7-3.2 46-7.1 20.3-3.9 48.7-9.2 63-11.8 24.7-4.5 28.7-4.7 81.3-3.4l55.3 1.3c2.3-27.9 2.3-46.8 1.6-60-0.7-13.2-2.7-32.6-4.2-43-1.6-10.4-5.6-29.8-8.8-43-3.3-13.2-9.7-34.8-14.2-48-4.6-13.2-12.4-33.4-17.3-45-4.9-11.6-16.8-36.3-26.5-55-9.6-18.7-25.9-47.9-36.2-65-10.3-17.1-23-37.5-28.3-45.5-5.4-8-9.7-14.9-9.7-15.5 0-0.6-10.6-17-23.6-36.5-12.9-19.5-29.7-45.4-37.3-57.5-7.5-12.1-16.6-26.5-20.1-32-3.5-5.5-11.8-19.9-18.6-32-6.7-12.1-17.1-32.3-23.1-45-6-12.7-14.5-33.8-18.9-47-4.4-13.2-8.5-28.3-9.1-33.5-0.6-5.2-2-9.5-3.1-9.5-1 0-2.5 6.1-3.3 13.5z"/>
		<path id="Path 19" class="s0" d="m1808.2 51.5c-14.8 28.3-34.7 66.4-44.2 84.5-9.6 18.1-29.8 56.9-45 86-15.2 29.1-37.3 71.4-49.1 94-11.8 22.6-26.1 50-31.9 61-5.8 11-22.2 42.5-36.5 70-14.3 27.5-31 59.4-37.1 71-6.1 11.6-14.4 25.5-18.4 31-4.1 5.5-14 16.1-22.2 23.6-10 9.2-20.6 16.4-32.8 22.4-9.9 4.9-24.3 10.4-32 12.3-8.9 2.1-22.4 3.4-37 3.4-17.7 0-26.6-1-38.5-4.3-8.5-2.4-21.1-7.2-28-10.7-6.9-3.4-29.2-16.6-49.5-29.3-20.3-12.7-39.7-24.6-43-26.4-3.3-1.9-13.2-7.9-22-13.4-8.8-5.5-37.4-23.1-63.5-39.3-26.1-16.1-47.9-29.1-48.4-28.8-0.4 0.3 2.2 15.8 5.9 34.5 3.7 18.7 10.4 53.4 14.9 77 4.5 23.7 11.7 61.4 16.1 84 4.3 22.6 11.5 60.3 16.1 84 4.5 23.7 11.7 61 15.9 83 4.2 22 8.2 43.2 8.9 47 0.7 3.8 7 36.7 14.1 73 7.1 36.3 13.4 69.2 14 73 0.7 3.8 4.3 23.2 8.2 43 3.8 19.8 10.6 54.9 15 78 4.4 23.1 12.1 62.7 16.9 88 4.9 25.3 15.1 78.4 22.7 118 7.6 39.6 16.6 86.4 19.9 104 3.3 17.6 6.5 35.2 7.1 39 0.7 3.8 0.3 11.9-0.9 18-1.1 6.1-3.7 12.8-5.8 15-2 2.2-9 6.7-15.4 10-10 5.1-13.9 5.9-26.7 5.9-12.2-0.1-16.9-1.1-25.5-5.5-8.4-4.3-21.7-17.4-65.9-64.9-30.5-32.7-72.7-77.9-93.7-100.5-21-22.6-53.7-57.7-72.7-78-20.6-22.1-43.9-49.7-57.8-68.7-12.9-17.5-37.8-51.2-55.4-75.1-17.6-23.8-39.4-53.4-48.5-65.8-9.1-12.3-16.9-22.2-17.4-21.9-0.5 0.3-5.4 23-10.9 50.5-7.4 37.1-11.7 54.1-16.8 66-3.8 8.8-19.8 46.2-35.4 83-15.7 36.8-30.5 71.1-33 76-2.5 4.9-8 12.2-12.3 16.1-4.2 3.9-12.9 9.1-19.2 11.5-6.3 2.4-15.3 4.4-20 4.4-4.7 0-34.1-5.5-65.5-12.1-31.4-6.6-60.6-12.9-65-13.9-4.4-1.1-25.1-5.5-46-9.9-20.9-4.4-57.4-12.1-81-17.1-23.6-5.1-57.4-12.3-75-16-17.6-3.7-44.6-9.5-60-12.8-15.4-3.3-41.5-9.7-58-14.1-16.5-4.5-40.4-11-53-14.4-12.6-3.4-31.8-8.8-42.5-12-13.8-4-19.5-5-19.5-3.2 0 1.4 1.3 6.1 2.9 10.5 1.5 4.4 11.5 32.3 22.1 62 10.7 29.7 23.7 66.2 29 81 5.2 14.8 13.6 38.2 18.6 52 5 13.7 11.8 32.7 15.1 42 3.3 9.3 10 28.2 14.9 42 5 13.7 14.4 40.3 21 59 6.7 18.7 16.3 45.7 21.4 60 5.1 14.3 13.9 39.1 19.4 55 9.2 26.2 10.3 31.1 11.2 51 0.6 13.6 0.1 26.9-1.5 35-1.3 7.2-5 19.7-8.2 28-3.2 8.2-9.5 20.8-14.1 28-4.6 7.2-13.4 18.3-19.6 24.7-6.2 6.4-17.1 15.6-24.2 20.3-7.1 4.7-18.9 11-26 13.9-7.1 2.9-21.6 7.5-32 10.3-10.4 2.7-29.3 7.9-42 11.6-12.7 3.7-36.9 10.5-54 15.2-17.1 4.7-41.8 11.7-55 15.4-13.2 3.8-24.2 7.1-24.5 7.3-0.3 0.2 33.4 24.1 74.8 53.3 41.5 29.2 85.8 60.2 98.5 69.1 12.8 8.9 61 42.5 107.2 74.8 46.2 32.3 93.9 65.5 106 73.8 12.1 8.3 30.3 21 40.5 28.2 10.1 7.2 27.5 19.4 38.6 27.1 11 7.7 29.7 20.8 41.5 29.1 11.8 8.4 57.4 40.3 101.4 70.9 44 30.7 98 68.3 120 83.7 22 15.4 52.6 36.8 68 47.6 15.4 10.7 44.6 31.1 65 45.3 20.4 14.1 59.5 41.3 87 60.3 32.2 22.2 51.6 36.9 54.5 41.3 2.5 3.7 6 12.4 7.7 19.3 2.7 10.3 2.9 14.3 1 22.5-1.3 5.5-11.7 35.7-23.1 67-11.4 31.3-35.3 97.1-53 146-17.7 48.9-32.2 89.9-32.1 91 0 1.2 7.4 0.7 19.5-1.4 10.7-1.8 50.5-8.9 88.5-15.6 38-6.7 73-12.9 78-13.9 5-1 14.4-2.8 21-4 6.6-1.2 31.8-5.6 56-9.9 24.2-4.3 65.2-11.6 91-16.2 25.8-4.6 59.2-10.6 74-13.3 14.8-2.7 33.8-6.1 42-7.6 8.3-1.4 16.3-2.2 18-1.8 1.7 0.5 17-1.8 34-5 17-3.3 53.5-10.1 81-15.3 36.2-6.8 50.7-10.3 52.4-12.7 1.4-1.8 3.5-13.6 4.8-26.3 1.3-13.4 1.8-31.4 1-43-0.8-11-3.1-28.6-5.2-39-2.1-10.4-6.7-27.1-10.1-37-3.5-9.9-10.2-25.7-14.9-35-4.7-9.3-14.2-25.6-21.1-36-6.9-10.4-17.9-26.2-24.6-35-6.7-8.8-25.7-32.2-42.3-52-16.6-19.8-38.3-46.3-48.2-59-9.9-12.7-23.9-32-31.2-43-7.2-11-17.7-29-23.2-40-5.5-11-13.2-29-17-40-3.8-11-10.2-35.8-14.1-55-3.9-19.3-8.5-44.9-10.3-57-1.8-12.1-4.2-34.2-5.4-49-1.2-15.4-1.6-43.4-0.9-65 0.7-20.9 2.6-47 4.3-58 1.7-11 5.4-30.3 8.3-43 2.8-12.7 8.7-33.3 13.1-46 4.4-12.7 15.5-38.3 24.7-57 9.2-18.7 24.8-46.2 34.6-61 9.9-14.8 25.9-36.9 35.6-49 9.8-12.1 29.9-34.5 44.7-49.8 14.8-15.3 41-39.9 58-54.7 17-14.8 45-37.4 62-50.2 17-12.8 45.4-32.9 63-44.7 17.6-11.8 32.2-21.2 32.5-21 0.3 0.2-1.3 4.9-3.6 10.4-2.3 5.5-6.4 16.7-9.2 25-2.7 8.2-6.4 21.3-8.1 29-2.1 9-3.2 24.4-3.3 43-0.2 21.4 0.7 33.2 3.4 45 2.1 8.8 6.9 24.6 10.8 35 3.9 10.4 10.7 25.7 15.2 34 4.4 8.2 13.6 23.6 20.4 34 6.8 10.4 20.4 29 30.2 41.3 9.7 12.2 29 35.2 42.9 51 13.8 15.8 34.7 40.2 46.5 54.2 11.7 14 21.3 25.1 21.3 24.5 0-0.6-2.7-8.9-6.1-18.5-3.3-9.6-8.2-25.6-10.9-35.5-2.7-9.9-6.7-28.3-8.8-41-2.2-12.7-4.5-34.3-5.3-48-0.8-15.1-0.4-34.1 1-48 1.3-12.7 4-31.6 6.1-42 2.1-10.4 5.3-24.4 7-31 1.7-6.6 6.2-20.6 9.8-31 3.7-10.4 9.6-25.8 13.2-34 3.6-8.3 10.5-22.9 15.3-32.5 4.8-9.6 17.1-30.8 27.3-47 10.2-16.2 26.2-39.8 35.6-52.5 9.4-12.7 24.6-32 33.8-43 9.2-11 21.2-24.9 26.8-31 5.5-6.1 20-21.6 32.1-34.6 12.2-12.9 37.9-38.2 57.1-56.1 19.3-18 48.1-43.8 64-57.5 15.9-13.7 38.4-32.6 50-42 11.6-9.3 36.8-29.2 56-44.1 19.3-14.9 36.1-27.6 37.5-28.4 1.4-0.7-5.7 9.7-15.8 23.2-10 13.5-24.8 34.4-32.7 46.5-8 12.1-19.2 30.6-25.1 41-5.9 10.4-14.2 26.7-18.5 36-4.3 9.3-11.2 26-15.4 37-4.1 11-9.1 25.4-11 32-1.9 6.6-5.1 18.7-7 27-2 8.2-4.8 21.7-6.3 30-1.8 10.1-2.7 31.8-2.7 66 0 40.6 0.8 55.1 3.7 71 2 11 5.9 29 8.6 40 2.8 11 8.2 29.9 12.1 42 3.8 12.1 11.5 33.2 17.1 47 5.5 13.7 19.6 44.8 31.4 69 11.7 24.2 29 58.4 38.4 76 9.5 17.6 21.9 41 27.7 52 5.9 11 20.3 39.3 32.1 63 11.8 23.7 25.5 52.4 30.5 64 4.9 11.6 13.6 33.6 19.3 49 5.8 15.4 13.9 40.6 18.1 56 4.1 15.4 9.4 39.2 11.7 53 2.3 13.7 5.2 38.1 6.5 54 1.8 22.4 1.9 35.9 0 59-1.3 16.5-3.7 38.6-5.4 49-1.7 10.4-5.7 28.9-8.8 41-3.1 12.1-8.3 29.7-11.5 39-3.3 9.3-9.7 26-14.4 37-4.7 11-11.7 26.3-15.6 34-3.9 7.7-11.6 22.1-17.1 32-5.5 9.9-18.2 30.2-28 45-9.9 14.8-26.6 38.2-37.2 52-10.5 13.7-27.2 34.4-37.1 46-9.9 11.6-38.7 41.9-64 67.5-25.4 25.5-45.7 46.8-45.1 47.3 0.6 0.4 21.3 4.9 46 9.9 24.8 5 65.3 13.2 90 18.3 40.9 8.4 45.5 8.9 50 6.3 4.5-2.6 7.9-2.4 32 1.8 14.8 2.5 32.4 5.6 39 6.8 6.6 1.1 26.8 4.7 45 8 18.2 3.2 72.2 12.7 120 21.1 47.8 8.4 109.9 19.2 138 24.1 28.1 4.9 58 10.2 66.5 11.9 8.5 1.6 17.8 3 20.5 3 3.2 0 4.7-0.9 4.1-2.5-0.5-1.4-14.1-38.9-30.2-83.5-16.1-44.6-36.5-100.8-45.3-125-8.8-24.2-16.8-46.3-17.7-49-0.8-2.8-4.8-14-8.8-25-4.9-13.6-7.2-23.4-7.1-30.5 0-5.8 1.8-15.4 4-21.5 3.8-10.5 5.3-12 30.5-30.6 14.6-10.9 42.3-31.4 61.5-45.6 19.3-14.3 59.3-43 89-63.7 29.7-20.7 62.6-43.7 73-51.1 10.4-7.4 59.5-41.6 109-76.1 49.5-34.5 108-75.3 130-90.8 22-15.5 47.7-33.4 57-39.8 9.3-6.4 21.1-14.5 26-18 4.9-3.5 43.7-30.6 86-60.2 42.3-29.6 105.3-73.6 140-97.8 34.7-24.1 69.8-48.7 78-54.5 8.3-5.8 34.1-23.9 57.5-40.2 23.4-16.3 47.7-33.1 54-37.5 11.2-7.6 11.4-7.9 6.5-9.6-2.7-1-21-6.2-40.5-11.6-19.5-5.5-51.9-14.5-72-20.1-20.1-5.6-46.4-12.9-58.5-16.1-12.1-3.3-31-10.4-42-15.8-13.7-6.7-24.4-13.8-33.8-22.3-7.6-6.9-17.6-18-22.3-24.6-4.6-6.6-10.8-16.7-13.7-22.5-2.8-5.8-7.6-19.3-10.4-30-4.7-17.3-5.2-22.1-4.3-42.5 0.8-18.3 2.2-26.9 7.1-42 3.4-10.4 11.6-34.3 18.4-53 6.8-18.7 17.6-48.8 24-67 6.5-18.2 19.9-55.9 30-84 10-28.1 23.5-65.8 30-84 6.4-18.2 18.2-51 26-73 7.9-22 20.1-56.2 27.2-76 7-19.8 12.8-37.1 12.8-38.5 0-1.8-5.7-0.8-19.5 3.3-10.7 3.2-33.9 9.6-51.5 14.3-17.6 4.7-44.2 11.9-59 16-14.8 4.1-36.9 9.8-49 12.6-12.1 2.8-37.3 8.3-56 12.2-18.7 4-37.6 8-42 9.1-4.4 1-19.2 4.2-33 7.1-13.7 2.8-41.7 8.6-62 12.9-20.3 4.3-51.8 10.9-70 14.8-18.2 3.8-50.1 10.6-71 15.1-20.9 4.4-41.8 8.1-46.5 8.1-4.7 0-13.2-1.8-19-4.1-5.8-2.2-13.4-6.2-17-9-3.6-2.7-8.6-8.3-11.2-12.4-2.6-4.1-10.6-21.4-17.8-38.5-7.2-17.1-23.6-55.8-36.6-86-12.9-30.3-26.6-62.7-30.4-72-4.3-10.5-9.5-30-13.7-51-3.8-18.7-7.3-34.2-7.8-34.5-0.6-0.3-20 25.4-43.3 57-23.3 31.6-48.9 66.5-57 77.5-8.1 11-27.4 37.1-42.8 58-23.6 31.9-40.5 51.3-105.5 121-42.6 45.6-89.1 95.5-103.4 110.8-14.3 15.4-30.1 32.1-35 37.2-4.9 5-13.5 11.4-19 14.1-7.8 3.8-13 4.9-24 4.8-10-0.1-16.9-1.4-24-4.6-5.5-2.5-13.4-7.8-17.7-11.9-4.2-4.1-8.9-9.9-10.5-12.9-1.5-3-2.8-9.3-2.8-14 0-4.7 1.8-18.4 3.9-30.5 2.1-12.1 7.1-38.7 11-59 4-20.3 10.8-55.4 15.1-78 4.4-22.6 11.6-60.3 16.1-84 4.5-23.7 10.7-56.5 13.9-73 3.2-16.5 10.4-53.8 16-83 5.6-29.2 13.9-71.9 18.3-95 4.4-23.1 10.6-55.5 13.8-72 3.2-16.5 9.5-49.3 14-73 4.5-23.7 11.6-61 15.9-83 4.3-22 11.4-59.3 15.9-83 4.5-23.7 11.2-58.8 15-78 3.8-19.3 10.1-52.6 14.1-74 3.9-21.4 8-42.1 9.1-46 1-3.9 1.8-9.9 1.9-13.5v-6.5c-96.9 59.9-139.4 86.1-157 96.9-17.6 10.7-36.5 22.5-42 26-5.5 3.6-15.8 9.5-23 13.1-7.2 3.6-17.9 8.2-24 10.2-6.1 2.1-18.7 4.8-28 6.1-13.4 1.9-21.2 1.9-37-0.2-11-1.4-25.8-4.7-33-7.4-7.2-2.7-18.8-8.2-26-12.2-7.2-4-19.6-13.7-27.7-21.4-8.1-7.8-17.6-18.6-21.3-24.1-3.6-5.5-11.7-19.9-18-32-6.3-12.1-16.2-31-22-42-5.8-11-18.4-35.3-28-54-9.7-18.7-18.2-34.9-19-36-0.8-1.1-6.2-11.4-12.1-23-5.9-11.6-18-34.9-27-52-8.9-17.1-22.6-43.1-30.3-58-7.7-14.9-21.5-41.4-30.6-59-9.1-17.6-23.5-45.1-31.9-61-8.5-15.9-26.6-51.3-40.3-78.5-13.7-27.2-25.8-49.5-26.9-49.5-1.1 0-14 23.2-28.7 51.5z"/>
	</g>
</svg>